# xmcd
#
# Track frame offsets:
#	150
#	26587
#	39922
#	56625
#	76946
#	94513
#	109984
#	133275
#	149106
#	166020
#	183966
#	213559
#	236461
#	258824
#	278824
#	299839
#
# Disc length: 4467
#
# Revision: 1
# Processed by: cddbd v1.5.1PL0 Copyright (c) Steve Scherf et al.
# Submitted via: CDex 1.50beta8
# Normalized: r0:TRMNUM
#
DISCID=ea117110
DTITLE=VanessaMae - Violin
DYEAR=2001
DGENRE=New Age
TTITLE0=Yantra
TTITLE1=Picante
TTITLE2=Can,Can(You)
TTITLE3=I'm a Down
TTITLE4=Contradanza
TTITLE5=Classical Gas
TTITLE6=Theme from Caravans
TTITLE7=Tequila Mockingbird
TTITLE8=Storm
TTITLE9=Retro
TTITLE10=Leyenda
TTITLE11=Embrasse Moi(You Fly Me up)
TTITLE12=Aurora
TTITLE13=Pasha
TTITLE14=Night Flight
TTITLE15=Toccata And Fugue in D minor
EXTD=YEAR: 2001
EXTT0=
EXTT1=
EXTT2=
EXTT3=
EXTT4=
EXTT5=
EXTT6=
EXTT7=
EXTT8=
EXTT9=
EXTT10=
EXTT11=
EXTT12=
EXTT13=
EXTT14=
EXTT15=
PLAYORDER=
